<svg width="86" height="117" viewBox="0 0 86 117" fill="none" xmlns="http://www.w3.org/2000/svg">
<g filter="url(#filter0_d_334_642)">
<path fill-rule="evenodd" clip-rule="evenodd" d="M61.4116 38.4769L35.2067 21.3383V69.9319H35.2057C35.2063 69.9813 35.2067 70.0307 35.2067 70.0803C35.2067 76.2298 30.2355 81.215 24.1033 81.215C17.9711 81.215 13 76.2298 13 70.0803C13 63.9307 17.9711 58.9455 24.1033 58.9455C26.603 58.9455 28.9096 59.7738 30.7654 61.1716V17.2636C30.761 17.0112 30.7994 16.7565 30.8828 16.5108C30.9581 16.2883 31.0676 16.0816 31.205 15.8969C31.407 15.6244 31.6611 15.4105 31.9443 15.26C32.4454 14.9938 33.0373 14.9262 33.5921 15.0842C33.8213 15.1493 34.0354 15.2503 34.2279 15.3808L64.8443 35.4045C65.5154 35.8435 65.8717 36.5845 65.8513 37.3329L65.9253 89.5667C65.9746 89.9926 66 90.426 66 90.8652C66 97.0148 61.0289 102 54.8967 102C48.7645 102 43.7933 97.0148 43.7933 90.8652C43.7933 84.7156 48.7645 79.7304 54.8967 79.7304C57.358 79.7304 59.6322 80.5335 61.4731 81.8927L61.4116 38.4769ZM61.4844 89.8642L61.4845 89.9759L61.5002 89.9759C61.5387 90.2668 61.5587 90.5637 61.5587 90.8652C61.5587 94.555 58.576 97.5461 54.8967 97.5461C51.2173 97.5461 48.2347 94.555 48.2347 90.8652C48.2347 87.1755 51.2173 84.1843 54.8967 84.1843C58.2367 84.1843 61.0027 86.6493 61.4844 89.8642ZM24.1033 76.7611C27.7827 76.7611 30.7653 73.77 30.7653 70.0803C30.7653 66.3905 27.7827 63.3994 24.1033 63.3994C20.424 63.3994 17.4413 66.3905 17.4413 70.0803C17.4413 73.77 20.424 76.7611 24.1033 76.7611Z" fill="white"/>
</g>
<defs>
<filter id="filter0_d_334_642" x="9" y="15" width="61" height="95" filterUnits="userSpaceOnUse" color-interpolation-filters="sRGB">
<feFlood flood-opacity="0" result="BackgroundImageFix"/>
<feColorMatrix in="SourceAlpha" type="matrix" values="0 0 0 0 0 0 0 0 0 0 0 0 0 0 0 0 0 0 127 0" result="hardAlpha"/>
<feOffset dy="4"/>
<feGaussianBlur stdDeviation="2"/>
<feComposite in2="hardAlpha" operator="out"/>
<feColorMatrix type="matrix" values="0 0 0 0 0 0 0 0 0 0 0 0 0 0 0 0 0 0 0.25 0"/>
<feBlend mode="normal" in2="BackgroundImageFix" result="effect1_dropShadow_334_642"/>
<feBlend mode="normal" in="SourceGraphic" in2="effect1_dropShadow_334_642" result="shape"/>
</filter>
</defs>
</svg>
